<?xml version="1.0" encoding="UTF-8" standalone="no"?>
<!DOCTYPE svg PUBLIC "-//W3C//DTD SVG 1.1//EN"
 "http://www.w3.org/Graphics/SVG/1.1/DTD/svg11.dtd">
<!-- Generated by graphviz version 2.42.3 (20191010.1750)
 -->
<!-- Title: %3 Pages: 1 -->
<svg width="703pt" height="474pt"
 viewBox="0.00 0.00 703.00 474.00" xmlns="http://www.w3.org/2000/svg" xmlns:xlink="http://www.w3.org/1999/xlink">
<g id="graph0" class="graph" transform="scale(1 1) rotate(0) translate(4 470)">
<title>%3</title>
<polygon fill="white" stroke="transparent" points="-4,4 -4,-470 699,-470 699,4 -4,4"/>
<!-- 0 -->
<g id="node1" class="node">
<title>0</title>
<ellipse fill="none" stroke="black" cx="319" cy="-362" rx="27" ry="18"/>
<text text-anchor="middle" x="319" y="-357.8" font-family="Times,serif" font-size="14.00">0</text>
</g>
<!-- 4 -->
<g id="node2" class="node">
<title>4</title>
<ellipse fill="none" stroke="black" cx="297" cy="-276" rx="27" ry="18"/>
<text text-anchor="middle" x="297" y="-271.8" font-family="Times,serif" font-size="14.00">4</text>
</g>
<!-- 0&#45;&gt;4 -->
<g id="edge1" class="edge">
<title>0&#45;&gt;4</title>
<path fill="none" stroke="black" d="M314.55,-344C311.54,-332.5 307.49,-317.07 304.05,-303.92"/>
<polygon fill="black" stroke="black" points="307.36,-302.76 301.45,-293.97 300.59,-304.53 307.36,-302.76"/>
<text text-anchor="middle" x="320.5" y="-314.8" font-family="Times,serif" font-size="14.00">107</text>
</g>
<!-- 8 -->
<g id="node3" class="node">
<title>8</title>
<ellipse fill="none" stroke="black" cx="441" cy="-276" rx="27" ry="18"/>
<text text-anchor="middle" x="441" y="-271.8" font-family="Times,serif" font-size="14.00">8</text>
</g>
<!-- 0&#45;&gt;8 -->
<g id="edge2" class="edge">
<title>0&#45;&gt;8</title>
<path fill="none" stroke="black" d="M337.26,-348.42C357.66,-334.38 390.86,-311.52 414.2,-295.45"/>
<polygon fill="black" stroke="black" points="416.36,-298.22 422.61,-289.66 412.39,-292.45 416.36,-298.22"/>
<text text-anchor="middle" x="398.24" y="-314.8" font-family="Times,serif" font-size="14.00">115</text>
</g>
<!-- 9 -->
<g id="node12" class="node">
<title>9</title>
<ellipse fill="none" stroke="black" cx="171" cy="-190" rx="27" ry="18"/>
<text text-anchor="middle" x="171" y="-185.8" font-family="Times,serif" font-size="14.00">9</text>
</g>
<!-- 4&#45;&gt;9 -->
<g id="edge9" class="edge">
<title>4&#45;&gt;9</title>
<path fill="none" stroke="black" d="M278.41,-262.61C257.19,-248.46 222.3,-225.2 198.07,-209.05"/>
<polygon fill="black" stroke="black" points="199.93,-206.08 189.67,-203.45 196.05,-211.9 199.93,-206.08"/>
<text text-anchor="middle" x="249" y="-228.8" font-family="Times,serif" font-size="14.00">55</text>
</g>
<!-- 24 -->
<g id="node13" class="node">
<title>24</title>
<ellipse fill="none" stroke="black" cx="315" cy="-190" rx="27" ry="18"/>
<text text-anchor="middle" x="315" y="-185.8" font-family="Times,serif" font-size="14.00">24</text>
</g>
<!-- 4&#45;&gt;24 -->
<g id="edge10" class="edge">
<title>4&#45;&gt;24</title>
<path fill="none" stroke="black" d="M300.64,-258C303.11,-246.5 306.41,-231.07 309.23,-217.92"/>
<polygon fill="black" stroke="black" points="312.69,-218.48 311.36,-207.97 305.85,-217.02 312.69,-218.48"/>
<text text-anchor="middle" x="315" y="-228.8" font-family="Times,serif" font-size="14.00">82</text>
</g>
<!-- 16 -->
<g id="node6" class="node">
<title>16</title>
<ellipse fill="none" stroke="black" cx="514" cy="-190" rx="27" ry="18"/>
<text text-anchor="middle" x="514" y="-185.8" font-family="Times,serif" font-size="14.00">16</text>
</g>
<!-- 8&#45;&gt;16 -->
<g id="edge13" class="edge">
<title>8&#45;&gt;16</title>
<path fill="none" stroke="black" d="M454.05,-259.98C465.26,-247.08 481.59,-228.29 494.38,-213.58"/>
<polygon fill="black" stroke="black" points="497.14,-215.73 501.06,-205.89 491.86,-211.14 497.14,-215.73"/>
<text text-anchor="middle" x="488" y="-228.8" font-family="Times,serif" font-size="14.00">59</text>
</g>
<!-- 21 -->
<g id="node16" class="node">
<title>21</title>
<ellipse fill="none" stroke="black" cx="403" cy="-190" rx="27" ry="18"/>
<text text-anchor="middle" x="403" y="-185.8" font-family="Times,serif" font-size="14.00">21</text>
</g>
<!-- 8&#45;&gt;21 -->
<g id="edge14" class="edge">
<title>8&#45;&gt;21</title>
<path fill="none" stroke="black" d="M433.49,-258.4C428.13,-246.55 420.82,-230.38 414.69,-216.85"/>
<polygon fill="black" stroke="black" points="417.8,-215.23 410.49,-207.56 411.42,-218.11 417.8,-215.23"/>
<text text-anchor="middle" x="431" y="-228.8" font-family="Times,serif" font-size="14.00">95</text>
</g>
<!-- 1 -->
<g id="node4" class="node">
<title>1</title>
<ellipse fill="none" stroke="black" cx="586" cy="-276" rx="27" ry="18"/>
<text text-anchor="middle" x="586" y="-271.8" font-family="Times,serif" font-size="14.00">1</text>
</g>
<!-- 6 -->
<g id="node5" class="node">
<title>6</title>
<ellipse fill="none" stroke="black" cx="587" cy="-190" rx="27" ry="18"/>
<text text-anchor="middle" x="587" y="-185.8" font-family="Times,serif" font-size="14.00">6</text>
</g>
<!-- 1&#45;&gt;6 -->
<g id="edge3" class="edge">
<title>1&#45;&gt;6</title>
<path fill="none" stroke="black" d="M586.21,-257.6C586.34,-246.26 586.52,-231.23 586.67,-218.32"/>
<polygon fill="black" stroke="black" points="590.18,-218.14 586.8,-208.1 583.18,-218.05 590.18,-218.14"/>
<text text-anchor="middle" x="596.5" y="-228.8" font-family="Times,serif" font-size="14.00">155</text>
</g>
<!-- 1&#45;&gt;16 -->
<g id="edge4" class="edge">
<title>1&#45;&gt;16</title>
<path fill="none" stroke="black" d="M573.13,-259.98C562.07,-247.08 545.96,-228.29 533.35,-213.58"/>
<polygon fill="black" stroke="black" points="535.93,-211.2 526.76,-205.89 530.61,-215.76 535.93,-211.2"/>
<text text-anchor="middle" x="561" y="-228.8" font-family="Times,serif" font-size="14.00">71</text>
</g>
<!-- 2 -->
<g id="node7" class="node">
<title>2</title>
<ellipse fill="none" stroke="black" cx="485" cy="-448" rx="27" ry="18"/>
<text text-anchor="middle" x="485" y="-443.8" font-family="Times,serif" font-size="14.00">2</text>
</g>
<!-- 7 -->
<g id="node8" class="node">
<title>7</title>
<ellipse fill="none" stroke="black" cx="441" cy="-362" rx="27" ry="18"/>
<text text-anchor="middle" x="441" y="-357.8" font-family="Times,serif" font-size="14.00">7</text>
</g>
<!-- 2&#45;&gt;7 -->
<g id="edge5" class="edge">
<title>2&#45;&gt;7</title>
<path fill="none" stroke="black" d="M476.52,-430.8C470.19,-418.72 461.42,-401.98 454.18,-388.16"/>
<polygon fill="black" stroke="black" points="457.2,-386.38 449.46,-379.15 451,-389.63 457.2,-386.38"/>
<text text-anchor="middle" x="472" y="-400.8" font-family="Times,serif" font-size="14.00">82</text>
</g>
<!-- 17 -->
<g id="node9" class="node">
<title>17</title>
<ellipse fill="none" stroke="black" cx="513" cy="-362" rx="27" ry="18"/>
<text text-anchor="middle" x="513" y="-357.8" font-family="Times,serif" font-size="14.00">17</text>
</g>
<!-- 2&#45;&gt;17 -->
<g id="edge6" class="edge">
<title>2&#45;&gt;17</title>
<path fill="none" stroke="black" d="M490.67,-430C494.56,-418.31 499.81,-402.56 504.24,-389.27"/>
<polygon fill="black" stroke="black" points="507.6,-390.28 507.44,-379.69 500.96,-388.07 507.6,-390.28"/>
<text text-anchor="middle" x="507" y="-400.8" font-family="Times,serif" font-size="14.00">23</text>
</g>
<!-- 7&#45;&gt;8 -->
<g id="edge12" class="edge">
<title>7&#45;&gt;8</title>
<path fill="none" stroke="black" d="M441,-343.6C441,-332.26 441,-317.23 441,-304.32"/>
<polygon fill="black" stroke="black" points="444.5,-304.1 441,-294.1 437.5,-304.1 444.5,-304.1"/>
<text text-anchor="middle" x="448" y="-314.8" font-family="Times,serif" font-size="14.00">29</text>
</g>
<!-- 3 -->
<g id="node10" class="node">
<title>3</title>
<ellipse fill="none" stroke="black" cx="663" cy="-276" rx="27" ry="18"/>
<text text-anchor="middle" x="663" y="-271.8" font-family="Times,serif" font-size="14.00">3</text>
</g>
<!-- 3&#45;&gt;16 -->
<g id="edge8" class="edge">
<title>3&#45;&gt;16</title>
<path fill="none" stroke="black" d="M649.7,-259.81C639.52,-249.02 624.61,-234.91 609,-226 585.56,-212.61 576.2,-217.65 551,-208 548.91,-207.2 546.77,-206.34 544.62,-205.44"/>
<polygon fill="black" stroke="black" points="545.88,-202.17 535.32,-201.37 543.08,-208.58 545.88,-202.17"/>
<text text-anchor="middle" x="635" y="-228.8" font-family="Times,serif" font-size="14.00">43</text>
</g>
<!-- 14 -->
<g id="node11" class="node">
<title>14</title>
<ellipse fill="none" stroke="black" cx="668" cy="-190" rx="27" ry="18"/>
<text text-anchor="middle" x="668" y="-185.8" font-family="Times,serif" font-size="14.00">14</text>
</g>
<!-- 3&#45;&gt;14 -->
<g id="edge7" class="edge">
<title>3&#45;&gt;14</title>
<path fill="none" stroke="black" d="M664.01,-258C664.69,-246.69 665.58,-231.58 666.36,-218.57"/>
<polygon fill="black" stroke="black" points="669.87,-218.45 666.97,-208.26 662.88,-218.04 669.87,-218.45"/>
<text text-anchor="middle" x="675.5" y="-228.8" font-family="Times,serif" font-size="14.00">150</text>
</g>
<!-- 10 -->
<g id="node17" class="node">
<title>10</title>
<ellipse fill="none" stroke="black" cx="171" cy="-104" rx="27" ry="18"/>
<text text-anchor="middle" x="171" y="-99.8" font-family="Times,serif" font-size="14.00">10</text>
</g>
<!-- 9&#45;&gt;10 -->
<g id="edge15" class="edge">
<title>9&#45;&gt;10</title>
<path fill="none" stroke="black" d="M171,-171.6C171,-160.26 171,-145.23 171,-132.32"/>
<polygon fill="black" stroke="black" points="174.5,-132.1 171,-122.1 167.5,-132.1 174.5,-132.1"/>
<text text-anchor="middle" x="178" y="-142.8" font-family="Times,serif" font-size="14.00">37</text>
</g>
<!-- 26 -->
<g id="node18" class="node">
<title>26</title>
<ellipse fill="none" stroke="black" cx="99" cy="-104" rx="27" ry="18"/>
<text text-anchor="middle" x="99" y="-99.8" font-family="Times,serif" font-size="14.00">26</text>
</g>
<!-- 9&#45;&gt;26 -->
<g id="edge16" class="edge">
<title>9&#45;&gt;26</title>
<path fill="none" stroke="black" d="M158.13,-173.98C147.07,-161.08 130.96,-142.29 118.35,-127.58"/>
<polygon fill="black" stroke="black" points="120.93,-125.2 111.76,-119.89 115.61,-129.76 120.93,-125.2"/>
<text text-anchor="middle" x="147" y="-142.8" font-family="Times,serif" font-size="14.00">81</text>
</g>
<!-- 5 -->
<g id="node14" class="node">
<title>5</title>
<ellipse fill="none" stroke="black" cx="27" cy="-190" rx="27" ry="18"/>
<text text-anchor="middle" x="27" y="-185.8" font-family="Times,serif" font-size="14.00">5</text>
</g>
<!-- 15 -->
<g id="node15" class="node">
<title>15</title>
<ellipse fill="none" stroke="black" cx="27" cy="-104" rx="27" ry="18"/>
<text text-anchor="middle" x="27" y="-99.8" font-family="Times,serif" font-size="14.00">15</text>
</g>
<!-- 5&#45;&gt;15 -->
<g id="edge11" class="edge">
<title>5&#45;&gt;15</title>
<path fill="none" stroke="black" d="M27,-171.6C27,-160.26 27,-145.23 27,-132.32"/>
<polygon fill="black" stroke="black" points="30.5,-132.1 27,-122.1 23.5,-132.1 30.5,-132.1"/>
<text text-anchor="middle" x="37.5" y="-142.8" font-family="Times,serif" font-size="14.00">107</text>
</g>
<!-- 25 -->
<g id="node19" class="node">
<title>25</title>
<ellipse fill="none" stroke="black" cx="170" cy="-18" rx="27" ry="18"/>
<text text-anchor="middle" x="170" y="-13.8" font-family="Times,serif" font-size="14.00">25</text>
</g>
<!-- 15&#45;&gt;25 -->
<g id="edge22" class="edge">
<title>15&#45;&gt;25</title>
<path fill="none" stroke="black" d="M46.58,-91.5C71.05,-77.12 113.11,-52.42 141.24,-35.9"/>
<polygon fill="black" stroke="black" points="143.34,-38.72 150.19,-30.63 139.8,-32.68 143.34,-38.72"/>
<text text-anchor="middle" x="115" y="-56.8" font-family="Times,serif" font-size="14.00">45</text>
</g>
<!-- 10&#45;&gt;25 -->
<g id="edge17" class="edge">
<title>10&#45;&gt;25</title>
<path fill="none" stroke="black" d="M170.79,-85.6C170.66,-74.26 170.48,-59.23 170.33,-46.32"/>
<polygon fill="black" stroke="black" points="173.82,-46.05 170.2,-36.1 166.82,-46.14 173.82,-46.05"/>
<text text-anchor="middle" x="178" y="-56.8" font-family="Times,serif" font-size="14.00">27</text>
</g>
<!-- 11 -->
<g id="node20" class="node">
<title>11</title>
<ellipse fill="none" stroke="black" cx="315" cy="-104" rx="27" ry="18"/>
<text text-anchor="middle" x="315" y="-99.8" font-family="Times,serif" font-size="14.00">11</text>
</g>
<!-- 22 -->
<g id="node21" class="node">
<title>22</title>
<ellipse fill="none" stroke="black" cx="334" cy="-18" rx="27" ry="18"/>
<text text-anchor="middle" x="334" y="-13.8" font-family="Times,serif" font-size="14.00">22</text>
</g>
<!-- 11&#45;&gt;22 -->
<g id="edge18" class="edge">
<title>11&#45;&gt;22</title>
<path fill="none" stroke="black" d="M318.84,-86C321.45,-74.5 324.94,-59.07 327.91,-45.92"/>
<polygon fill="black" stroke="black" points="331.37,-46.5 330.16,-35.97 324.54,-44.95 331.37,-46.5"/>
<text text-anchor="middle" x="333" y="-56.8" font-family="Times,serif" font-size="14.00">45</text>
</g>
<!-- 12 -->
<g id="node22" class="node">
<title>12</title>
<ellipse fill="none" stroke="black" cx="243" cy="-190" rx="27" ry="18"/>
<text text-anchor="middle" x="243" y="-185.8" font-family="Times,serif" font-size="14.00">12</text>
</g>
<!-- 18 -->
<g id="node23" class="node">
<title>18</title>
<ellipse fill="none" stroke="black" cx="243" cy="-104" rx="27" ry="18"/>
<text text-anchor="middle" x="243" y="-99.8" font-family="Times,serif" font-size="14.00">18</text>
</g>
<!-- 12&#45;&gt;18 -->
<g id="edge19" class="edge">
<title>12&#45;&gt;18</title>
<path fill="none" stroke="black" d="M243,-171.6C243,-160.26 243,-145.23 243,-132.32"/>
<polygon fill="black" stroke="black" points="246.5,-132.1 243,-122.1 239.5,-132.1 246.5,-132.1"/>
<text text-anchor="middle" x="246.5" y="-142.8" font-family="Times,serif" font-size="14.00">9</text>
</g>
<!-- 19 -->
<g id="node24" class="node">
<title>19</title>
<ellipse fill="none" stroke="black" cx="387" cy="-104" rx="27" ry="18"/>
<text text-anchor="middle" x="387" y="-99.8" font-family="Times,serif" font-size="14.00">19</text>
</g>
<!-- 12&#45;&gt;19 -->
<g id="edge20" class="edge">
<title>12&#45;&gt;19</title>
<path fill="none" stroke="black" d="M262.72,-177.5C287.46,-163.06 330.08,-138.2 358.4,-121.68"/>
<polygon fill="black" stroke="black" points="360.18,-124.7 367.06,-116.63 356.65,-118.65 360.18,-124.7"/>
<text text-anchor="middle" x="331" y="-142.8" font-family="Times,serif" font-size="14.00">40</text>
</g>
<!-- 18&#45;&gt;25 -->
<g id="edge24" class="edge">
<title>18&#45;&gt;25</title>
<path fill="none" stroke="black" d="M229.95,-87.98C218.74,-75.08 202.41,-56.29 189.62,-41.58"/>
<polygon fill="black" stroke="black" points="192.14,-39.14 182.94,-33.89 186.86,-43.73 192.14,-39.14"/>
<text text-anchor="middle" x="218" y="-56.8" font-family="Times,serif" font-size="14.00">69</text>
</g>
<!-- 23 -->
<g id="node26" class="node">
<title>23</title>
<ellipse fill="none" stroke="black" cx="244" cy="-18" rx="27" ry="18"/>
<text text-anchor="middle" x="244" y="-13.8" font-family="Times,serif" font-size="14.00">23</text>
</g>
<!-- 18&#45;&gt;23 -->
<g id="edge23" class="edge">
<title>18&#45;&gt;23</title>
<path fill="none" stroke="black" d="M243.21,-85.6C243.34,-74.26 243.52,-59.23 243.67,-46.32"/>
<polygon fill="black" stroke="black" points="247.18,-46.14 243.8,-36.1 240.18,-46.05 247.18,-46.14"/>
<text text-anchor="middle" x="251" y="-56.8" font-family="Times,serif" font-size="14.00">50</text>
</g>
<!-- 19&#45;&gt;22 -->
<g id="edge25" class="edge">
<title>19&#45;&gt;22</title>
<path fill="none" stroke="black" d="M377.03,-87.2C369.31,-74.96 358.46,-57.77 349.6,-43.72"/>
<polygon fill="black" stroke="black" points="352.4,-41.6 344.1,-35.01 346.48,-45.34 352.4,-41.6"/>
<text text-anchor="middle" x="371" y="-56.8" font-family="Times,serif" font-size="14.00">32</text>
</g>
<!-- 13 -->
<g id="node25" class="node">
<title>13</title>
<ellipse fill="none" stroke="black" cx="513" cy="-276" rx="27" ry="18"/>
<text text-anchor="middle" x="513" y="-271.8" font-family="Times,serif" font-size="14.00">13</text>
</g>
<!-- 13&#45;&gt;16 -->
<g id="edge21" class="edge">
<title>13&#45;&gt;16</title>
<path fill="none" stroke="black" d="M513.21,-257.6C513.34,-246.26 513.52,-231.23 513.67,-218.32"/>
<polygon fill="black" stroke="black" points="517.18,-218.14 513.8,-208.1 510.18,-218.05 517.18,-218.14"/>
<text text-anchor="middle" x="520" y="-228.8" font-family="Times,serif" font-size="14.00">52</text>
</g>
<!-- 20 -->
<g id="node27" class="node">
<title>20</title>
<ellipse fill="none" stroke="black" cx="369" cy="-276" rx="27" ry="18"/>
<text text-anchor="middle" x="369" y="-271.8" font-family="Times,serif" font-size="14.00">20</text>
</g>
<!-- 20&#45;&gt;21 -->
<g id="edge26" class="edge">
<title>20&#45;&gt;21</title>
<path fill="none" stroke="black" d="M369.82,-257.66C370.76,-248.03 372.77,-236 377,-226 378.73,-221.92 381.02,-217.88 383.53,-214.07"/>
<polygon fill="black" stroke="black" points="386.57,-215.84 389.63,-205.7 380.92,-211.72 386.57,-215.84"/>
<text text-anchor="middle" x="387.5" y="-228.8" font-family="Times,serif" font-size="14.00">105</text>
</g>
</g>
</svg>
