<?xml version="1.0" encoding="UTF-8" standalone="no"?>
<!DOCTYPE svg PUBLIC "-//W3C//DTD SVG 1.1//EN"
 "http://www.w3.org/Graphics/SVG/1.1/DTD/svg11.dtd">
<!-- Generated by graphviz version 2.42.3 (20191010.1750)
 -->
<!-- Title: %3 Pages: 1 -->
<svg width="703pt" height="474pt"
 viewBox="0.00 0.00 703.00 474.00" xmlns="http://www.w3.org/2000/svg" xmlns:xlink="http://www.w3.org/1999/xlink">
<g id="graph0" class="graph" transform="scale(1 1) rotate(0) translate(4 470)">
<title>%3</title>
<polygon fill="white" stroke="transparent" points="-4,4 -4,-470 699,-470 699,4 -4,4"/>
<!-- 0 -->
<g id="node1" class="node">
<title>0</title>
<ellipse fill="none" stroke="black" cx="319" cy="-362" rx="27" ry="18"/>
<text text-anchor="middle" x="319" y="-357.8" font-family="Times,serif" font-size="14.00">0</text>
</g>
<!-- 4 -->
<g id="node2" class="node">
<title>4</title>
<ellipse fill="none" stroke="black" cx="297" cy="-276" rx="27" ry="18"/>
<text text-anchor="middle" x="297" y="-271.8" font-family="Times,serif" font-size="14.00">4</text>
</g>
<!-- 0&#45;&gt;4 -->
<g id="edge1" class="edge">
<title>0&#45;&gt;4</title>
<path fill="none" stroke="black" d="M314.55,-344C310.73,-329.43 305.26,-308.54 301.45,-293.97"/>
<text text-anchor="middle" x="320.5" y="-314.8" font-family="Times,serif" font-size="14.00">107</text>
</g>
<!-- 8 -->
<g id="node3" class="node">
<title>8</title>
<ellipse fill="none" stroke="black" cx="441" cy="-276" rx="27" ry="18"/>
<text text-anchor="middle" x="441" y="-271.8" font-family="Times,serif" font-size="14.00">8</text>
</g>
<!-- 0&#45;&gt;8 -->
<g id="edge2" class="edge">
<title>0&#45;&gt;8</title>
<path fill="none" stroke="black" d="M337.26,-348.42C360.26,-332.59 399.55,-305.54 422.61,-289.66"/>
<text text-anchor="middle" x="398.24" y="-314.8" font-family="Times,serif" font-size="14.00">115</text>
</g>
<!-- 9 -->
<g id="node12" class="node">
<title>9</title>
<ellipse fill="none" stroke="black" cx="171" cy="-190" rx="27" ry="18"/>
<text text-anchor="middle" x="171" y="-185.8" font-family="Times,serif" font-size="14.00">9</text>
</g>
<!-- 4&#45;&gt;9 -->
<g id="edge9" class="edge">
<title>4&#45;&gt;9</title>
<path fill="none" stroke="black" d="M278.41,-262.61C254.59,-246.72 213.53,-219.35 189.67,-203.45"/>
<text text-anchor="middle" x="249" y="-228.8" font-family="Times,serif" font-size="14.00">55</text>
</g>
<!-- 24 -->
<g id="node13" class="node">
<title>24</title>
<ellipse fill="none" stroke="black" cx="315" cy="-190" rx="27" ry="18"/>
<text text-anchor="middle" x="315" y="-185.8" font-family="Times,serif" font-size="14.00">24</text>
</g>
<!-- 4&#45;&gt;24 -->
<g id="edge10" class="edge">
<title>4&#45;&gt;24</title>
<path fill="none" stroke="black" d="M300.64,-258C303.77,-243.43 308.24,-222.54 311.36,-207.97"/>
<text text-anchor="middle" x="315" y="-228.8" font-family="Times,serif" font-size="14.00">82</text>
</g>
<!-- 16 -->
<g id="node6" class="node">
<title>16</title>
<ellipse fill="none" stroke="black" cx="514" cy="-190" rx="27" ry="18"/>
<text text-anchor="middle" x="514" y="-185.8" font-family="Times,serif" font-size="14.00">16</text>
</g>
<!-- 8&#45;&gt;16 -->
<g id="edge13" class="edge">
<title>8&#45;&gt;16</title>
<path fill="none" stroke="black" d="M454.05,-259.98C467.34,-244.69 487.82,-221.13 501.06,-205.89"/>
<text text-anchor="middle" x="488" y="-228.8" font-family="Times,serif" font-size="14.00">59</text>
</g>
<!-- 21 -->
<g id="node16" class="node">
<title>21</title>
<ellipse fill="none" stroke="black" cx="403" cy="-190" rx="27" ry="18"/>
<text text-anchor="middle" x="403" y="-185.8" font-family="Times,serif" font-size="14.00">21</text>
</g>
<!-- 8&#45;&gt;21 -->
<g id="edge14" class="edge">
<title>8&#45;&gt;21</title>
<path fill="none" stroke="black" d="M433.49,-258.4C426.83,-243.68 417.15,-222.28 410.49,-207.56"/>
<text text-anchor="middle" x="431" y="-228.8" font-family="Times,serif" font-size="14.00">95</text>
</g>
<!-- 1 -->
<g id="node4" class="node">
<title>1</title>
<ellipse fill="none" stroke="black" cx="586" cy="-276" rx="27" ry="18"/>
<text text-anchor="middle" x="586" y="-271.8" font-family="Times,serif" font-size="14.00">1</text>
</g>
<!-- 6 -->
<g id="node5" class="node">
<title>6</title>
<ellipse fill="none" stroke="black" cx="587" cy="-190" rx="27" ry="18"/>
<text text-anchor="middle" x="587" y="-185.8" font-family="Times,serif" font-size="14.00">6</text>
</g>
<!-- 1&#45;&gt;6 -->
<g id="edge3" class="edge">
<title>1&#45;&gt;6</title>
<path fill="none" stroke="black" d="M586.21,-257.6C586.38,-243.08 586.62,-222.52 586.8,-208.1"/>
<text text-anchor="middle" x="596.5" y="-228.8" font-family="Times,serif" font-size="14.00">155</text>
</g>
<!-- 1&#45;&gt;16 -->
<g id="edge4" class="edge">
<title>1&#45;&gt;16</title>
<path fill="none" stroke="black" d="M573.13,-259.98C560.02,-244.69 539.83,-221.13 526.76,-205.89"/>
<text text-anchor="middle" x="561" y="-228.8" font-family="Times,serif" font-size="14.00">71</text>
</g>
<!-- 2 -->
<g id="node7" class="node">
<title>2</title>
<ellipse fill="none" stroke="black" cx="485" cy="-448" rx="27" ry="18"/>
<text text-anchor="middle" x="485" y="-443.8" font-family="Times,serif" font-size="14.00">2</text>
</g>
<!-- 7 -->
<g id="node8" class="node">
<title>7</title>
<ellipse fill="none" stroke="black" cx="441" cy="-362" rx="27" ry="18"/>
<text text-anchor="middle" x="441" y="-357.8" font-family="Times,serif" font-size="14.00">7</text>
</g>
<!-- 2&#45;&gt;7 -->
<g id="edge5" class="edge">
<title>2&#45;&gt;7</title>
<path fill="none" stroke="black" d="M476.52,-430.8C468.72,-415.93 457.24,-394.01 449.46,-379.15"/>
<text text-anchor="middle" x="472" y="-400.8" font-family="Times,serif" font-size="14.00">82</text>
</g>
<!-- 17 -->
<g id="node9" class="node">
<title>17</title>
<ellipse fill="none" stroke="black" cx="513" cy="-362" rx="27" ry="18"/>
<text text-anchor="middle" x="513" y="-357.8" font-family="Times,serif" font-size="14.00">17</text>
</g>
<!-- 2&#45;&gt;17 -->
<g id="edge6" class="edge">
<title>2&#45;&gt;17</title>
<path fill="none" stroke="black" d="M490.67,-430C495.56,-415.33 502.58,-394.26 507.44,-379.69"/>
<text text-anchor="middle" x="507" y="-400.8" font-family="Times,serif" font-size="14.00">23</text>
</g>
<!-- 7&#45;&gt;8 -->
<g id="edge12" class="edge">
<title>7&#45;&gt;8</title>
<path fill="none" stroke="black" d="M441,-343.6C441,-329.08 441,-308.52 441,-294.1"/>
<text text-anchor="middle" x="448" y="-314.8" font-family="Times,serif" font-size="14.00">29</text>
</g>
<!-- 3 -->
<g id="node10" class="node">
<title>3</title>
<ellipse fill="none" stroke="black" cx="663" cy="-276" rx="27" ry="18"/>
<text text-anchor="middle" x="663" y="-271.8" font-family="Times,serif" font-size="14.00">3</text>
</g>
<!-- 3&#45;&gt;16 -->
<g id="edge8" class="edge">
<title>3&#45;&gt;16</title>
<path fill="none" stroke="black" d="M649.7,-259.81C639.52,-249.02 624.61,-234.91 609,-226 585.56,-212.61 576.2,-217.65 551,-208 545.85,-206.03 540.4,-203.68 535.32,-201.37"/>
<text text-anchor="middle" x="635" y="-228.8" font-family="Times,serif" font-size="14.00">43</text>
</g>
<!-- 14 -->
<g id="node11" class="node">
<title>14</title>
<ellipse fill="none" stroke="black" cx="668" cy="-190" rx="27" ry="18"/>
<text text-anchor="middle" x="668" y="-185.8" font-family="Times,serif" font-size="14.00">14</text>
</g>
<!-- 3&#45;&gt;14 -->
<g id="edge7" class="edge">
<title>3&#45;&gt;14</title>
<path fill="none" stroke="black" d="M664.01,-258C664.87,-243.52 666.11,-222.81 666.97,-208.26"/>
<text text-anchor="middle" x="675.5" y="-228.8" font-family="Times,serif" font-size="14.00">150</text>
</g>
<!-- 10 -->
<g id="node17" class="node">
<title>10</title>
<ellipse fill="none" stroke="black" cx="171" cy="-104" rx="27" ry="18"/>
<text text-anchor="middle" x="171" y="-99.8" font-family="Times,serif" font-size="14.00">10</text>
</g>
<!-- 9&#45;&gt;10 -->
<g id="edge15" class="edge">
<title>9&#45;&gt;10</title>
<path fill="none" stroke="black" d="M171,-171.6C171,-157.08 171,-136.52 171,-122.1"/>
<text text-anchor="middle" x="178" y="-142.8" font-family="Times,serif" font-size="14.00">37</text>
</g>
<!-- 26 -->
<g id="node18" class="node">
<title>26</title>
<ellipse fill="none" stroke="black" cx="99" cy="-104" rx="27" ry="18"/>
<text text-anchor="middle" x="99" y="-99.8" font-family="Times,serif" font-size="14.00">26</text>
</g>
<!-- 9&#45;&gt;26 -->
<g id="edge16" class="edge">
<title>9&#45;&gt;26</title>
<path fill="none" stroke="black" d="M158.13,-173.98C145.02,-158.69 124.83,-135.13 111.76,-119.89"/>
<text text-anchor="middle" x="147" y="-142.8" font-family="Times,serif" font-size="14.00">81</text>
</g>
<!-- 5 -->
<g id="node14" class="node">
<title>5</title>
<ellipse fill="none" stroke="black" cx="27" cy="-190" rx="27" ry="18"/>
<text text-anchor="middle" x="27" y="-185.8" font-family="Times,serif" font-size="14.00">5</text>
</g>
<!-- 15 -->
<g id="node15" class="node">
<title>15</title>
<ellipse fill="none" stroke="black" cx="27" cy="-104" rx="27" ry="18"/>
<text text-anchor="middle" x="27" y="-99.8" font-family="Times,serif" font-size="14.00">15</text>
</g>
<!-- 5&#45;&gt;15 -->
<g id="edge11" class="edge">
<title>5&#45;&gt;15</title>
<path fill="none" stroke="black" d="M27,-171.6C27,-157.08 27,-136.52 27,-122.1"/>
<text text-anchor="middle" x="37.5" y="-142.8" font-family="Times,serif" font-size="14.00">107</text>
</g>
<!-- 25 -->
<g id="node19" class="node">
<title>25</title>
<ellipse fill="none" stroke="black" cx="170" cy="-18" rx="27" ry="18"/>
<text text-anchor="middle" x="170" y="-13.8" font-family="Times,serif" font-size="14.00">25</text>
</g>
<!-- 15&#45;&gt;25 -->
<g id="edge22" class="edge">
<title>15&#45;&gt;25</title>
<path fill="none" stroke="black" d="M46.58,-91.5C73.81,-75.5 122.84,-46.7 150.19,-30.63"/>
<text text-anchor="middle" x="115" y="-56.8" font-family="Times,serif" font-size="14.00">45</text>
</g>
<!-- 10&#45;&gt;25 -->
<g id="edge17" class="edge">
<title>10&#45;&gt;25</title>
<path fill="none" stroke="black" d="M170.79,-85.6C170.62,-71.08 170.38,-50.52 170.2,-36.1"/>
<text text-anchor="middle" x="178" y="-56.8" font-family="Times,serif" font-size="14.00">27</text>
</g>
<!-- 11 -->
<g id="node20" class="node">
<title>11</title>
<ellipse fill="none" stroke="black" cx="315" cy="-104" rx="27" ry="18"/>
<text text-anchor="middle" x="315" y="-99.8" font-family="Times,serif" font-size="14.00">11</text>
</g>
<!-- 22 -->
<g id="node21" class="node">
<title>22</title>
<ellipse fill="none" stroke="black" cx="334" cy="-18" rx="27" ry="18"/>
<text text-anchor="middle" x="334" y="-13.8" font-family="Times,serif" font-size="14.00">22</text>
</g>
<!-- 11&#45;&gt;22 -->
<g id="edge18" class="edge">
<title>11&#45;&gt;22</title>
<path fill="none" stroke="black" d="M318.84,-86C322.14,-71.43 326.87,-50.54 330.16,-35.97"/>
<text text-anchor="middle" x="333" y="-56.8" font-family="Times,serif" font-size="14.00">45</text>
</g>
<!-- 12 -->
<g id="node22" class="node">
<title>12</title>
<ellipse fill="none" stroke="black" cx="243" cy="-190" rx="27" ry="18"/>
<text text-anchor="middle" x="243" y="-185.8" font-family="Times,serif" font-size="14.00">12</text>
</g>
<!-- 18 -->
<g id="node23" class="node">
<title>18</title>
<ellipse fill="none" stroke="black" cx="243" cy="-104" rx="27" ry="18"/>
<text text-anchor="middle" x="243" y="-99.8" font-family="Times,serif" font-size="14.00">18</text>
</g>
<!-- 12&#45;&gt;18 -->
<g id="edge19" class="edge">
<title>12&#45;&gt;18</title>
<path fill="none" stroke="black" d="M243,-171.6C243,-157.08 243,-136.52 243,-122.1"/>
<text text-anchor="middle" x="246.5" y="-142.8" font-family="Times,serif" font-size="14.00">9</text>
</g>
<!-- 19 -->
<g id="node24" class="node">
<title>19</title>
<ellipse fill="none" stroke="black" cx="387" cy="-104" rx="27" ry="18"/>
<text text-anchor="middle" x="387" y="-99.8" font-family="Times,serif" font-size="14.00">19</text>
</g>
<!-- 12&#45;&gt;19 -->
<g id="edge20" class="edge">
<title>12&#45;&gt;19</title>
<path fill="none" stroke="black" d="M262.72,-177.5C290.14,-161.5 339.51,-132.7 367.06,-116.63"/>
<text text-anchor="middle" x="331" y="-142.8" font-family="Times,serif" font-size="14.00">40</text>
</g>
<!-- 18&#45;&gt;25 -->
<g id="edge24" class="edge">
<title>18&#45;&gt;25</title>
<path fill="none" stroke="black" d="M229.95,-87.98C216.66,-72.69 196.18,-49.13 182.94,-33.89"/>
<text text-anchor="middle" x="218" y="-56.8" font-family="Times,serif" font-size="14.00">69</text>
</g>
<!-- 23 -->
<g id="node26" class="node">
<title>23</title>
<ellipse fill="none" stroke="black" cx="244" cy="-18" rx="27" ry="18"/>
<text text-anchor="middle" x="244" y="-13.8" font-family="Times,serif" font-size="14.00">23</text>
</g>
<!-- 18&#45;&gt;23 -->
<g id="edge23" class="edge">
<title>18&#45;&gt;23</title>
<path fill="none" stroke="black" d="M243.21,-85.6C243.38,-71.08 243.62,-50.52 243.8,-36.1"/>
<text text-anchor="middle" x="251" y="-56.8" font-family="Times,serif" font-size="14.00">50</text>
</g>
<!-- 19&#45;&gt;22 -->
<g id="edge25" class="edge">
<title>19&#45;&gt;22</title>
<path fill="none" stroke="black" d="M377.03,-87.2C367.62,-72.28 353.56,-50.01 344.1,-35.01"/>
<text text-anchor="middle" x="371" y="-56.8" font-family="Times,serif" font-size="14.00">32</text>
</g>
<!-- 13 -->
<g id="node25" class="node">
<title>13</title>
<ellipse fill="none" stroke="black" cx="513" cy="-276" rx="27" ry="18"/>
<text text-anchor="middle" x="513" y="-271.8" font-family="Times,serif" font-size="14.00">13</text>
</g>
<!-- 13&#45;&gt;16 -->
<g id="edge21" class="edge">
<title>13&#45;&gt;16</title>
<path fill="none" stroke="black" d="M513.21,-257.6C513.38,-243.08 513.62,-222.52 513.8,-208.1"/>
<text text-anchor="middle" x="520" y="-228.8" font-family="Times,serif" font-size="14.00">52</text>
</g>
<!-- 20 -->
<g id="node27" class="node">
<title>20</title>
<ellipse fill="none" stroke="black" cx="369" cy="-276" rx="27" ry="18"/>
<text text-anchor="middle" x="369" y="-271.8" font-family="Times,serif" font-size="14.00">20</text>
</g>
<!-- 20&#45;&gt;21 -->
<g id="edge26" class="edge">
<title>20&#45;&gt;21</title>
<path fill="none" stroke="black" d="M369.82,-257.66C370.76,-248.03 372.77,-236 377,-226 380.07,-218.75 384.93,-211.61 389.63,-205.7"/>
<text text-anchor="middle" x="387.5" y="-228.8" font-family="Times,serif" font-size="14.00">105</text>
</g>
</g>
</svg>
