<?xml version="1.0" encoding="UTF-8" standalone="no"?>
<!DOCTYPE svg PUBLIC "-//W3C//DTD SVG 1.1//EN"
 "http://www.w3.org/Graphics/SVG/1.1/DTD/svg11.dtd">
<!-- Generated by graphviz version 2.42.3 (20191010.1750)
 -->
<!-- Title: %3 Pages: 1 -->
<svg width="828pt" height="474pt"
 viewBox="0.00 0.00 828.00 474.00" xmlns="http://www.w3.org/2000/svg" xmlns:xlink="http://www.w3.org/1999/xlink">
<g id="graph0" class="graph" transform="scale(1 1) rotate(0) translate(4 470)">
<title>%3</title>
<polygon fill="white" stroke="transparent" points="-4,4 -4,-470 824,-470 824,4 -4,4"/>
<!-- 0 -->
<g id="node1" class="node">
<title>0</title>
<ellipse fill="none" stroke="black" cx="99" cy="-362" rx="27" ry="18"/>
<text text-anchor="middle" x="99" y="-357.8" font-family="Times,serif" font-size="14.00">0</text>
</g>
<!-- 4 -->
<g id="node2" class="node">
<title>4</title>
<ellipse fill="none" stroke="black" cx="99" cy="-276" rx="27" ry="18"/>
<text text-anchor="middle" x="99" y="-271.8" font-family="Times,serif" font-size="14.00">4</text>
</g>
<!-- 0&#45;&gt;4 -->
<g id="edge1" class="edge">
<title>0&#45;&gt;4</title>
<path fill="none" stroke="black" d="M99,-343.6C99,-332.26 99,-317.23 99,-304.32"/>
<polygon fill="black" stroke="black" points="102.5,-304.1 99,-294.1 95.5,-304.1 102.5,-304.1"/>
<text text-anchor="middle" x="109.5" y="-314.8" font-family="Times,serif" font-size="14.00">107</text>
</g>
<!-- 9 -->
<g id="node10" class="node">
<title>9</title>
<ellipse fill="none" stroke="black" cx="315" cy="-190" rx="27" ry="18"/>
<text text-anchor="middle" x="315" y="-185.8" font-family="Times,serif" font-size="14.00">9</text>
</g>
<!-- 4&#45;&gt;9 -->
<g id="edge9" class="edge">
<title>4&#45;&gt;9</title>
<path fill="none" stroke="black" d="M122.55,-266.95C157.17,-254.96 223.69,-231.3 279,-208 280.82,-207.24 282.67,-206.43 284.54,-205.6"/>
<polygon fill="black" stroke="black" points="286.17,-208.71 293.81,-201.37 283.26,-202.34 286.17,-208.71"/>
<text text-anchor="middle" x="237" y="-228.8" font-family="Times,serif" font-size="14.00">55</text>
</g>
<!-- 24 -->
<g id="node12" class="node">
<title>24</title>
<ellipse fill="none" stroke="black" cx="27" cy="-190" rx="27" ry="18"/>
<text text-anchor="middle" x="27" y="-185.8" font-family="Times,serif" font-size="14.00">24</text>
</g>
<!-- 4&#45;&gt;24 -->
<g id="edge10" class="edge">
<title>4&#45;&gt;24</title>
<path fill="none" stroke="black" d="M86.13,-259.98C75.07,-247.08 58.96,-228.29 46.35,-213.58"/>
<polygon fill="black" stroke="black" points="48.93,-211.2 39.76,-205.89 43.61,-215.76 48.93,-211.2"/>
<text text-anchor="middle" x="75" y="-228.8" font-family="Times,serif" font-size="14.00">82</text>
</g>
<!-- 1 -->
<g id="node3" class="node">
<title>1</title>
<ellipse fill="none" stroke="black" cx="554" cy="-276" rx="27" ry="18"/>
<text text-anchor="middle" x="554" y="-271.8" font-family="Times,serif" font-size="14.00">1</text>
</g>
<!-- 6 -->
<g id="node4" class="node">
<title>6</title>
<ellipse fill="none" stroke="black" cx="531" cy="-190" rx="27" ry="18"/>
<text text-anchor="middle" x="531" y="-185.8" font-family="Times,serif" font-size="14.00">6</text>
</g>
<!-- 1&#45;&gt;6 -->
<g id="edge2" class="edge">
<title>1&#45;&gt;6</title>
<path fill="none" stroke="black" d="M541.97,-259.86C538.02,-253.99 534.1,-247.01 532,-240 529.93,-233.1 529.13,-225.4 528.97,-218.19"/>
<polygon fill="black" stroke="black" points="532.47,-218.18 529.13,-208.13 525.47,-218.07 532.47,-218.18"/>
<text text-anchor="middle" x="542.5" y="-228.8" font-family="Times,serif" font-size="14.00">155</text>
</g>
<!-- 16 -->
<g id="node5" class="node">
<title>16</title>
<ellipse fill="none" stroke="black" cx="630" cy="-190" rx="27" ry="18"/>
<text text-anchor="middle" x="630" y="-185.8" font-family="Times,serif" font-size="14.00">16</text>
</g>
<!-- 1&#45;&gt;16 -->
<g id="edge3" class="edge">
<title>1&#45;&gt;16</title>
<path fill="none" stroke="black" d="M569.09,-261.07C575.69,-254.79 583.4,-247.2 590,-240 597.46,-231.87 605.23,-222.57 611.91,-214.27"/>
<polygon fill="black" stroke="black" points="614.69,-216.39 618.18,-206.39 609.22,-212.03 614.69,-216.39"/>
<text text-anchor="middle" x="608" y="-228.8" font-family="Times,serif" font-size="14.00">71</text>
</g>
<!-- 2 -->
<g id="node6" class="node">
<title>2</title>
<ellipse fill="none" stroke="black" cx="765" cy="-448" rx="27" ry="18"/>
<text text-anchor="middle" x="765" y="-443.8" font-family="Times,serif" font-size="14.00">2</text>
</g>
<!-- 7 -->
<g id="node7" class="node">
<title>7</title>
<ellipse fill="none" stroke="black" cx="721" cy="-362" rx="27" ry="18"/>
<text text-anchor="middle" x="721" y="-357.8" font-family="Times,serif" font-size="14.00">7</text>
</g>
<!-- 2&#45;&gt;7 -->
<g id="edge4" class="edge">
<title>2&#45;&gt;7</title>
<path fill="none" stroke="black" d="M756.52,-430.8C750.19,-418.72 741.42,-401.98 734.18,-388.16"/>
<polygon fill="black" stroke="black" points="737.2,-386.38 729.46,-379.15 731,-389.63 737.2,-386.38"/>
<text text-anchor="middle" x="752" y="-400.8" font-family="Times,serif" font-size="14.00">82</text>
</g>
<!-- 17 -->
<g id="node8" class="node">
<title>17</title>
<ellipse fill="none" stroke="black" cx="793" cy="-362" rx="27" ry="18"/>
<text text-anchor="middle" x="793" y="-357.8" font-family="Times,serif" font-size="14.00">17</text>
</g>
<!-- 2&#45;&gt;17 -->
<g id="edge5" class="edge">
<title>2&#45;&gt;17</title>
<path fill="none" stroke="black" d="M770.67,-430C774.56,-418.31 779.81,-402.56 784.24,-389.27"/>
<polygon fill="black" stroke="black" points="787.6,-390.28 787.44,-379.69 780.96,-388.07 787.6,-390.28"/>
<text text-anchor="middle" x="787" y="-400.8" font-family="Times,serif" font-size="14.00">23</text>
</g>
<!-- 8 -->
<g id="node15" class="node">
<title>8</title>
<ellipse fill="none" stroke="black" cx="721" cy="-276" rx="27" ry="18"/>
<text text-anchor="middle" x="721" y="-271.8" font-family="Times,serif" font-size="14.00">8</text>
</g>
<!-- 7&#45;&gt;8 -->
<g id="edge12" class="edge">
<title>7&#45;&gt;8</title>
<path fill="none" stroke="black" d="M721,-343.6C721,-332.26 721,-317.23 721,-304.32"/>
<polygon fill="black" stroke="black" points="724.5,-304.1 721,-294.1 717.5,-304.1 724.5,-304.1"/>
<text text-anchor="middle" x="728" y="-314.8" font-family="Times,serif" font-size="14.00">29</text>
</g>
<!-- 3 -->
<g id="node9" class="node">
<title>3</title>
<ellipse fill="none" stroke="black" cx="459" cy="-276" rx="27" ry="18"/>
<text text-anchor="middle" x="459" y="-271.8" font-family="Times,serif" font-size="14.00">3</text>
</g>
<!-- 3&#45;&gt;16 -->
<g id="edge8" class="edge">
<title>3&#45;&gt;16</title>
<path fill="none" stroke="black" d="M483.37,-267.99C502.83,-261.91 530.48,-252.18 553,-240 562.23,-235.01 563.28,-231.83 572,-226 581.41,-219.71 591.94,-213.21 601.42,-207.53"/>
<polygon fill="black" stroke="black" points="603.3,-210.49 610.12,-202.38 599.73,-204.47 603.3,-210.49"/>
<text text-anchor="middle" x="579" y="-228.8" font-family="Times,serif" font-size="14.00">43</text>
</g>
<!-- 3&#45;&gt;9 -->
<g id="edge6" class="edge">
<title>3&#45;&gt;9</title>
<path fill="none" stroke="black" d="M439.28,-263.5C414.54,-249.06 371.92,-224.2 343.6,-207.68"/>
<polygon fill="black" stroke="black" points="345.35,-204.65 334.94,-202.63 341.82,-210.7 345.35,-204.65"/>
<text text-anchor="middle" x="405.5" y="-228.8" font-family="Times,serif" font-size="14.00">407</text>
</g>
<!-- 14 -->
<g id="node11" class="node">
<title>14</title>
<ellipse fill="none" stroke="black" cx="459" cy="-190" rx="27" ry="18"/>
<text text-anchor="middle" x="459" y="-185.8" font-family="Times,serif" font-size="14.00">14</text>
</g>
<!-- 3&#45;&gt;14 -->
<g id="edge7" class="edge">
<title>3&#45;&gt;14</title>
<path fill="none" stroke="black" d="M459,-257.6C459,-246.26 459,-231.23 459,-218.32"/>
<polygon fill="black" stroke="black" points="462.5,-218.1 459,-208.1 455.5,-218.1 462.5,-218.1"/>
<text text-anchor="middle" x="469.5" y="-228.8" font-family="Times,serif" font-size="14.00">150</text>
</g>
<!-- 10 -->
<g id="node17" class="node">
<title>10</title>
<ellipse fill="none" stroke="black" cx="315" cy="-104" rx="27" ry="18"/>
<text text-anchor="middle" x="315" y="-99.8" font-family="Times,serif" font-size="14.00">10</text>
</g>
<!-- 9&#45;&gt;10 -->
<g id="edge15" class="edge">
<title>9&#45;&gt;10</title>
<path fill="none" stroke="black" d="M315,-171.6C315,-160.26 315,-145.23 315,-132.32"/>
<polygon fill="black" stroke="black" points="318.5,-132.1 315,-122.1 311.5,-132.1 318.5,-132.1"/>
<text text-anchor="middle" x="322" y="-142.8" font-family="Times,serif" font-size="14.00">37</text>
</g>
<!-- 26 -->
<g id="node18" class="node">
<title>26</title>
<ellipse fill="none" stroke="black" cx="243" cy="-104" rx="27" ry="18"/>
<text text-anchor="middle" x="243" y="-99.8" font-family="Times,serif" font-size="14.00">26</text>
</g>
<!-- 9&#45;&gt;26 -->
<g id="edge16" class="edge">
<title>9&#45;&gt;26</title>
<path fill="none" stroke="black" d="M302.13,-173.98C291.07,-161.08 274.96,-142.29 262.35,-127.58"/>
<polygon fill="black" stroke="black" points="264.93,-125.2 255.76,-119.89 259.61,-129.76 264.93,-125.2"/>
<text text-anchor="middle" x="290" y="-142.8" font-family="Times,serif" font-size="14.00">81</text>
</g>
<!-- 5 -->
<g id="node13" class="node">
<title>5</title>
<ellipse fill="none" stroke="black" cx="387" cy="-190" rx="27" ry="18"/>
<text text-anchor="middle" x="387" y="-185.8" font-family="Times,serif" font-size="14.00">5</text>
</g>
<!-- 15 -->
<g id="node14" class="node">
<title>15</title>
<ellipse fill="none" stroke="black" cx="387" cy="-104" rx="27" ry="18"/>
<text text-anchor="middle" x="387" y="-99.8" font-family="Times,serif" font-size="14.00">15</text>
</g>
<!-- 5&#45;&gt;15 -->
<g id="edge11" class="edge">
<title>5&#45;&gt;15</title>
<path fill="none" stroke="black" d="M387,-171.6C387,-160.26 387,-145.23 387,-132.32"/>
<polygon fill="black" stroke="black" points="390.5,-132.1 387,-122.1 383.5,-132.1 390.5,-132.1"/>
<text text-anchor="middle" x="397.5" y="-142.8" font-family="Times,serif" font-size="14.00">107</text>
</g>
<!-- 25 -->
<g id="node19" class="node">
<title>25</title>
<ellipse fill="none" stroke="black" cx="315" cy="-18" rx="27" ry="18"/>
<text text-anchor="middle" x="315" y="-13.8" font-family="Times,serif" font-size="14.00">25</text>
</g>
<!-- 15&#45;&gt;25 -->
<g id="edge22" class="edge">
<title>15&#45;&gt;25</title>
<path fill="none" stroke="black" d="M374.13,-87.98C363.07,-75.08 346.96,-56.29 334.35,-41.58"/>
<polygon fill="black" stroke="black" points="336.93,-39.2 327.76,-33.89 331.61,-43.76 336.93,-39.2"/>
<text text-anchor="middle" x="362" y="-56.8" font-family="Times,serif" font-size="14.00">45</text>
</g>
<!-- 8&#45;&gt;16 -->
<g id="edge13" class="edge">
<title>8&#45;&gt;16</title>
<path fill="none" stroke="black" d="M705.56,-260.75C691.1,-247.4 669.29,-227.27 652.81,-212.06"/>
<polygon fill="black" stroke="black" points="654.93,-209.25 645.21,-205.04 650.18,-214.39 654.93,-209.25"/>
<text text-anchor="middle" x="687" y="-228.8" font-family="Times,serif" font-size="14.00">59</text>
</g>
<!-- 21 -->
<g id="node16" class="node">
<title>21</title>
<ellipse fill="none" stroke="black" cx="766" cy="-190" rx="27" ry="18"/>
<text text-anchor="middle" x="766" y="-185.8" font-family="Times,serif" font-size="14.00">21</text>
</g>
<!-- 8&#45;&gt;21 -->
<g id="edge14" class="edge">
<title>8&#45;&gt;21</title>
<path fill="none" stroke="black" d="M729.68,-258.8C736.15,-246.72 745.12,-229.98 752.52,-216.16"/>
<polygon fill="black" stroke="black" points="755.71,-217.61 757.35,-207.15 749.54,-214.31 755.71,-217.61"/>
<text text-anchor="middle" x="753" y="-228.8" font-family="Times,serif" font-size="14.00">95</text>
</g>
<!-- 10&#45;&gt;25 -->
<g id="edge17" class="edge">
<title>10&#45;&gt;25</title>
<path fill="none" stroke="black" d="M315,-85.6C315,-74.26 315,-59.23 315,-46.32"/>
<polygon fill="black" stroke="black" points="318.5,-46.1 315,-36.1 311.5,-46.1 318.5,-46.1"/>
<text text-anchor="middle" x="322" y="-56.8" font-family="Times,serif" font-size="14.00">27</text>
</g>
<!-- 11 -->
<g id="node20" class="node">
<title>11</title>
<ellipse fill="none" stroke="black" cx="171" cy="-190" rx="27" ry="18"/>
<text text-anchor="middle" x="171" y="-185.8" font-family="Times,serif" font-size="14.00">11</text>
</g>
<!-- 22 -->
<g id="node21" class="node">
<title>22</title>
<ellipse fill="none" stroke="black" cx="171" cy="-104" rx="27" ry="18"/>
<text text-anchor="middle" x="171" y="-99.8" font-family="Times,serif" font-size="14.00">22</text>
</g>
<!-- 11&#45;&gt;22 -->
<g id="edge18" class="edge">
<title>11&#45;&gt;22</title>
<path fill="none" stroke="black" d="M171,-171.6C171,-160.26 171,-145.23 171,-132.32"/>
<polygon fill="black" stroke="black" points="174.5,-132.1 171,-122.1 167.5,-132.1 174.5,-132.1"/>
<text text-anchor="middle" x="178" y="-142.8" font-family="Times,serif" font-size="14.00">45</text>
</g>
<!-- 12 -->
<g id="node22" class="node">
<title>12</title>
<ellipse fill="none" stroke="black" cx="99" cy="-190" rx="27" ry="18"/>
<text text-anchor="middle" x="99" y="-185.8" font-family="Times,serif" font-size="14.00">12</text>
</g>
<!-- 12&#45;&gt;22 -->
<g id="edge20" class="edge">
<title>12&#45;&gt;22</title>
<path fill="none" stroke="black" d="M111.87,-173.98C122.93,-161.08 139.04,-142.29 151.65,-127.58"/>
<polygon fill="black" stroke="black" points="154.39,-129.76 158.24,-119.89 149.07,-125.2 154.39,-129.76"/>
<text text-anchor="middle" x="146" y="-142.8" font-family="Times,serif" font-size="14.00">72</text>
</g>
<!-- 18 -->
<g id="node23" class="node">
<title>18</title>
<ellipse fill="none" stroke="black" cx="99" cy="-104" rx="27" ry="18"/>
<text text-anchor="middle" x="99" y="-99.8" font-family="Times,serif" font-size="14.00">18</text>
</g>
<!-- 12&#45;&gt;18 -->
<g id="edge19" class="edge">
<title>12&#45;&gt;18</title>
<path fill="none" stroke="black" d="M99,-171.6C99,-160.26 99,-145.23 99,-132.32"/>
<polygon fill="black" stroke="black" points="102.5,-132.1 99,-122.1 95.5,-132.1 102.5,-132.1"/>
<text text-anchor="middle" x="102.5" y="-142.8" font-family="Times,serif" font-size="14.00">9</text>
</g>
<!-- 18&#45;&gt;25 -->
<g id="edge24" class="edge">
<title>18&#45;&gt;25</title>
<path fill="none" stroke="black" d="M120.19,-92.63C125.02,-90.37 130.16,-88.04 135,-86 185.56,-64.7 245.48,-43.1 281.85,-30.39"/>
<polygon fill="black" stroke="black" points="283.16,-33.64 291.45,-27.05 280.86,-27.03 283.16,-33.64"/>
<text text-anchor="middle" x="220" y="-56.8" font-family="Times,serif" font-size="14.00">69</text>
</g>
<!-- 23 -->
<g id="node25" class="node">
<title>23</title>
<ellipse fill="none" stroke="black" cx="99" cy="-18" rx="27" ry="18"/>
<text text-anchor="middle" x="99" y="-13.8" font-family="Times,serif" font-size="14.00">23</text>
</g>
<!-- 18&#45;&gt;23 -->
<g id="edge23" class="edge">
<title>18&#45;&gt;23</title>
<path fill="none" stroke="black" d="M99,-85.6C99,-74.26 99,-59.23 99,-46.32"/>
<polygon fill="black" stroke="black" points="102.5,-46.1 99,-36.1 95.5,-46.1 102.5,-46.1"/>
<text text-anchor="middle" x="106" y="-56.8" font-family="Times,serif" font-size="14.00">50</text>
</g>
<!-- 13 -->
<g id="node24" class="node">
<title>13</title>
<ellipse fill="none" stroke="black" cx="649" cy="-276" rx="27" ry="18"/>
<text text-anchor="middle" x="649" y="-271.8" font-family="Times,serif" font-size="14.00">13</text>
</g>
<!-- 13&#45;&gt;16 -->
<g id="edge21" class="edge">
<title>13&#45;&gt;16</title>
<path fill="none" stroke="black" d="M645.16,-258C642.55,-246.5 639.06,-231.07 636.09,-217.92"/>
<polygon fill="black" stroke="black" points="639.46,-216.95 633.84,-207.97 632.63,-218.5 639.46,-216.95"/>
<text text-anchor="middle" x="647" y="-228.8" font-family="Times,serif" font-size="14.00">52</text>
</g>
<!-- 19 -->
<g id="node26" class="node">
<title>19</title>
<ellipse fill="none" stroke="black" cx="243" cy="-190" rx="27" ry="18"/>
<text text-anchor="middle" x="243" y="-185.8" font-family="Times,serif" font-size="14.00">19</text>
</g>
<!-- 19&#45;&gt;22 -->
<g id="edge25" class="edge">
<title>19&#45;&gt;22</title>
<path fill="none" stroke="black" d="M230.13,-173.98C219.07,-161.08 202.96,-142.29 190.35,-127.58"/>
<polygon fill="black" stroke="black" points="192.93,-125.2 183.76,-119.89 187.61,-129.76 192.93,-125.2"/>
<text text-anchor="middle" x="218" y="-142.8" font-family="Times,serif" font-size="14.00">32</text>
</g>
<!-- 20 -->
<g id="node27" class="node">
<title>20</title>
<ellipse fill="none" stroke="black" cx="793" cy="-276" rx="27" ry="18"/>
<text text-anchor="middle" x="793" y="-271.8" font-family="Times,serif" font-size="14.00">20</text>
</g>
<!-- 20&#45;&gt;21 -->
<g id="edge26" class="edge">
<title>20&#45;&gt;21</title>
<path fill="none" stroke="black" d="M787.54,-258C783.78,-246.31 778.72,-230.56 774.44,-217.27"/>
<polygon fill="black" stroke="black" points="777.76,-216.14 771.36,-207.69 771.09,-218.28 777.76,-216.14"/>
<text text-anchor="middle" x="791.5" y="-228.8" font-family="Times,serif" font-size="14.00">105</text>
</g>
</g>
</svg>
